<?xml version="1.0" standalone="no"?>
<svg xmlns:xlink="http://www.w3.org/1999/xlink" id="wave" style="transform:rotate(0deg); transition: 0.3s" viewBox="0 0 1440 490" version="1.1" xmlns="http://www.w3.org/2000/svg"><defs><linearGradient id="sw-gradient-0" x1="0" x2="0" y1="1" y2="0"><stop stop-color="rgba(243, 106, 62, 1)" offset="0%"/><stop stop-color="rgba(255, 179, 11, 1)" offset="100%"/></linearGradient></defs><path style="transform:translate(0, 0px); opacity:1" fill="url(#sw-gradient-0)" d="M0,441L48,400.2C96,359,192,278,288,204.2C384,131,480,65,576,40.8C672,16,768,33,864,73.5C960,114,1056,180,1152,228.7C1248,278,1344,310,1440,269.5C1536,229,1632,114,1728,81.7C1824,49,1920,98,2016,106.2C2112,114,2208,82,2304,130.7C2400,180,2496,310,2592,343C2688,376,2784,310,2880,269.5C2976,229,3072,212,3168,212.3C3264,212,3360,229,3456,204.2C3552,180,3648,114,3744,89.8C3840,65,3936,82,4032,122.5C4128,163,4224,229,4320,212.3C4416,196,4512,98,4608,49C4704,0,4800,0,4896,40.8C4992,82,5088,163,5184,163.3C5280,163,5376,82,5472,81.7C5568,82,5664,163,5760,228.7C5856,294,5952,343,6048,334.8C6144,327,6240,261,6336,204.2C6432,147,6528,98,6624,130.7C6720,163,6816,278,6864,334.8L6912,392L6912,490L6864,490C6816,490,6720,490,6624,490C6528,490,6432,490,6336,490C6240,490,6144,490,6048,490C5952,490,5856,490,5760,490C5664,490,5568,490,5472,490C5376,490,5280,490,5184,490C5088,490,4992,490,4896,490C4800,490,4704,490,4608,490C4512,490,4416,490,4320,490C4224,490,4128,490,4032,490C3936,490,3840,490,3744,490C3648,490,3552,490,3456,490C3360,490,3264,490,3168,490C3072,490,2976,490,2880,490C2784,490,2688,490,2592,490C2496,490,2400,490,2304,490C2208,490,2112,490,2016,490C1920,490,1824,490,1728,490C1632,490,1536,490,1440,490C1344,490,1248,490,1152,490C1056,490,960,490,864,490C768,490,672,490,576,490C480,490,384,490,288,490C192,490,96,490,48,490L0,490Z"/><defs><linearGradient id="sw-gradient-1" x1="0" x2="0" y1="1" y2="0"><stop stop-color="rgba(243, 106, 62, 1)" offset="0%"/><stop stop-color="rgba(255, 179, 11, 1)" offset="100%"/></linearGradient></defs><path style="transform:translate(0, 50px); opacity:0.9" fill="url(#sw-gradient-1)" d="M0,343L48,318.5C96,294,192,245,288,261.3C384,278,480,359,576,383.8C672,408,768,376,864,310.3C960,245,1056,147,1152,106.2C1248,65,1344,82,1440,106.2C1536,131,1632,163,1728,155.2C1824,147,1920,98,2016,114.3C2112,131,2208,212,2304,236.8C2400,261,2496,229,2592,187.8C2688,147,2784,98,2880,138.8C2976,180,3072,310,3168,343C3264,376,3360,310,3456,269.5C3552,229,3648,212,3744,220.5C3840,229,3936,261,4032,228.7C4128,196,4224,98,4320,65.3C4416,33,4512,65,4608,89.8C4704,114,4800,131,4896,130.7C4992,131,5088,114,5184,89.8C5280,65,5376,33,5472,16.3C5568,0,5664,0,5760,73.5C5856,147,5952,294,6048,318.5C6144,343,6240,245,6336,220.5C6432,196,6528,245,6624,236.8C6720,229,6816,163,6864,130.7L6912,98L6912,490L6864,490C6816,490,6720,490,6624,490C6528,490,6432,490,6336,490C6240,490,6144,490,6048,490C5952,490,5856,490,5760,490C5664,490,5568,490,5472,490C5376,490,5280,490,5184,490C5088,490,4992,490,4896,490C4800,490,4704,490,4608,490C4512,490,4416,490,4320,490C4224,490,4128,490,4032,490C3936,490,3840,490,3744,490C3648,490,3552,490,3456,490C3360,490,3264,490,3168,490C3072,490,2976,490,2880,490C2784,490,2688,490,2592,490C2496,490,2400,490,2304,490C2208,490,2112,490,2016,490C1920,490,1824,490,1728,490C1632,490,1536,490,1440,490C1344,490,1248,490,1152,490C1056,490,960,490,864,490C768,490,672,490,576,490C480,490,384,490,288,490C192,490,96,490,48,490L0,490Z"/><defs><linearGradient id="sw-gradient-2" x1="0" x2="0" y1="1" y2="0"><stop stop-color="rgba(243, 106, 62, 1)" offset="0%"/><stop stop-color="rgba(255, 179, 11, 1)" offset="100%"/></linearGradient></defs><path style="transform:translate(0, 100px); opacity:0.8" fill="url(#sw-gradient-2)" d="M0,0L48,32.7C96,65,192,131,288,204.2C384,278,480,359,576,375.7C672,392,768,343,864,277.7C960,212,1056,131,1152,81.7C1248,33,1344,16,1440,49C1536,82,1632,163,1728,163.3C1824,163,1920,82,2016,57.2C2112,33,2208,65,2304,122.5C2400,180,2496,261,2592,318.5C2688,376,2784,408,2880,351.2C2976,294,3072,147,3168,114.3C3264,82,3360,163,3456,236.8C3552,310,3648,376,3744,400.2C3840,425,3936,408,4032,343C4128,278,4224,163,4320,138.8C4416,114,4512,180,4608,220.5C4704,261,4800,278,4896,302.2C4992,327,5088,359,5184,334.8C5280,310,5376,229,5472,187.8C5568,147,5664,147,5760,147C5856,147,5952,147,6048,122.5C6144,98,6240,49,6336,40.8C6432,33,6528,65,6624,138.8C6720,212,6816,327,6864,383.8L6912,441L6912,490L6864,490C6816,490,6720,490,6624,490C6528,490,6432,490,6336,490C6240,490,6144,490,6048,490C5952,490,5856,490,5760,490C5664,490,5568,490,5472,490C5376,490,5280,490,5184,490C5088,490,4992,490,4896,490C4800,490,4704,490,4608,490C4512,490,4416,490,4320,490C4224,490,4128,490,4032,490C3936,490,3840,490,3744,490C3648,490,3552,490,3456,490C3360,490,3264,490,3168,490C3072,490,2976,490,2880,490C2784,490,2688,490,2592,490C2496,490,2400,490,2304,490C2208,490,2112,490,2016,490C1920,490,1824,490,1728,490C1632,490,1536,490,1440,490C1344,490,1248,490,1152,490C1056,490,960,490,864,490C768,490,672,490,576,490C480,490,384,490,288,490C192,490,96,490,48,490L0,490Z"/></svg>